<svg width="33px" height="47px" viewBox="0 0 33 47" version="1.1" xmlns="http://www.w3.org/2000/svg" xmlns:xlink="http://www.w3.org/1999/xlink">
 <!-- Generator: Sketch 48.2 (47327) - http://www.bohemiancoding.com/sketch -->
 <title>
  Logo_icon@3x
 </title>
 <desc>
  Created with Sketch.
 </desc>
 <defs>
 </defs>
 <g id="Explore_final_with_icons" stroke="none" stroke-width="1" fill="none" fillRule="evenodd" transform="translate(-40.000000, -13.000000)">
  <g id="Header" fill="#5E63E5">
   <g id="Logo_icon" transform="translate(40.000000, 13.000000)">
    <path d="M10.5002,18.0002 C9.6712,18.0002 9.0002,17.3282 9.0002,16.5002 L9.0002,13.5002 C9.0002,12.6722 9.6712,12.0002 10.5002,12.0002 C11.3282,12.0002 12.0002,12.6722 12.0002,13.5002 L12.0002,16.5002 C12.0002,17.3282 11.3282,18.0002 10.5002,18.0002" id="Fill-1">
    </path>
    <path d="M22.5002,18.0002 C21.6712,18.0002 21.0002,17.3282 21.0002,16.5002 L21.0002,13.5002 C21.0002,12.6722 21.6712,12.0002 22.5002,12.0002 C23.3282,12.0002 24.0002,12.6722 24.0002,13.5002 L24.0002,16.5002 C24.0002,17.3282 23.3282,18.0002 22.5002,18.0002" id="Fill-3">
    </path>
    <path d="M16.5002,27.0002 C10.1482,27.0002 5.0002,21.5842 5.0002,14.9022 C5.0002,13.7682 5.1522,12.6712 5.4292,11.6302 L5.4292,11.7092 C6.0682,9.5612 7.9722,8.0002 10.2262,8.0002 C13.0022,8.0002 15.0002,10.3682 15.0002,13.2892 L15.0002,16.8182 L15.0002,18.0002 L15.0002,18.8482 C15.0002,19.6682 15.6652,20.3332 16.4852,20.3332 L16.5152,20.3332 C17.3352,20.3332 18.0002,19.6682 18.0002,18.8482 L18.0002,18.0002 L18.0002,16.8182 L18.0002,13.2892 C18.0002,10.3682 19.9972,8.0002 22.7742,8.0002 C25.0282,8.0002 26.9322,9.5612 27.5712,11.7102 L27.5712,11.6302 C27.8482,12.6712 28.0002,13.7682 28.0002,14.9022 C28.0002,21.5842 22.8512,27.0002 16.5002,27.0002 Z M21.0002,31.5022 C21.0002,32.3292 20.3292,33.0002 19.5022,33.0002 L19.4982,33.0002 C18.6702,33.0002 18.0002,32.3292 18.0002,31.5022 L18.0002,30.8512 C18.0002,30.7982 18.0702,30.7862 18.0882,30.8362 C18.2962,31.4132 18.8492,31.8262 19.4982,31.8262 L19.5022,31.8262 C20.1512,31.8262 20.7032,31.4132 20.9122,30.8362 C20.9292,30.7862 21.0002,30.7982 21.0002,30.8512 L21.0002,31.5022 Z M18.0002,34.5022 C18.0002,35.3292 17.3292,36.0002 16.5022,36.0002 L16.4982,36.0002 C15.6702,36.0002 15.0002,35.3292 15.0002,34.5022 L15.0002,33.8512 C15.0002,33.7982 15.0702,33.7862 15.0882,33.8362 C15.2962,34.4132 15.8492,34.8262 16.4982,34.8262 L16.5022,34.8262 C17.1512,34.8262 17.7032,34.4132 17.9122,33.8362 C17.9292,33.7862 18.0002,33.7982 18.0002,33.8512 L18.0002,34.5022 Z M13.5022,33.0002 L13.4982,33.0002 C12.6702,33.0002 12.0002,32.3292 12.0002,31.5022 L12.0002,30.8512 C12.0002,30.7982 12.0702,30.7862 12.0882,30.8362 C12.2962,31.4132 12.8492,31.8262 13.4982,31.8262 L13.5022,31.8262 C14.1512,31.8262 14.7032,31.4132 14.9122,30.8362 C14.9292,30.7862 15.0002,30.7982 15.0002,30.8512 L15.0002,31.5022 C15.0002,32.3292 14.3292,33.0002 13.5022,33.0002 Z M30.2652,6.5372 L30.9082,3.0002 L24.8512,3.0002 C21.0412,3.0002 17.7952,5.3832 16.5002,8.7352 C15.2052,5.3832 11.9582,3.0002 8.1482,3.0002 L2.0922,3.0002 L2.7352,6.5372 C0.9722,9.0742 0.0002,12.2082 0.0002,15.7122 C0.0002,31.8282 16.5002,42.0002 16.5002,42.0002 C16.5002,42.0002 33.0002,31.8282 33.0002,15.7122 C33.0002,12.2082 32.0282,9.0742 30.2652,6.5372 Z" id="Fill-5">
    </path>
    <path d="M23.0002,46.0002 C23.0002,46.5522 20.0902,47.0002 16.5002,47.0002 C12.9102,47.0002 10.0002,46.5522 10.0002,46.0002 C10.0002,45.4472 12.9102,45.0002 16.5002,45.0002 C20.0902,45.0002 23.0002,45.4472 23.0002,46.0002" id="Fill-8">
    </path>
    <path d="M16.5002,6.3205 C18.0712,3.7335 20.9062,2.0005 24.1542,2.0005 L25.1192,2.0005 C22.7012,0.7235 19.8032,0.0005 16.5002,0.0005 C13.1972,0.0005 10.2992,0.7235 7.8812,2.0005 L8.8462,2.0005 C12.0942,2.0005 14.9292,3.7335 16.5002,6.3205" id="Fill-11">
    </path>
   </g>
  </g>
 </g>
</svg>