<svg xmlns="http://www.w3.org/2000/svg" width="154" height="47" viewBox="0 0 154 47" fill="none">
    <path fillRule="evenodd" clipRule="evenodd" d="M85.2792 20.1518C86.0542 17.7068 87.8242 16.3858 90.3122 16.0148C92.0742 15.7528 93.8222 15.8428 95.5352 16.3998C95.9922 16.5478 96.1882 16.6938 96.1882 16.6938C96.1882 16.6938 96.3522 19.1558 96.4172 20.1578C94.9892 19.6048 93.5732 19.3058 92.0972 19.3378C90.4232 19.3728 89.3692 20.1688 88.9732 21.7878C88.3152 24.4458 88.9732 26.5478 88.9732 26.5478C89.3692 28.1668 90.4232 28.9628 92.0972 28.9978C93.5732 29.0288 94.9892 28.7298 96.4172 28.1768C96.3522 29.1788 96.1882 31.6408 96.1882 31.6408C96.1882 31.6408 95.9922 31.7878 95.5352 31.9358C93.8222 32.4928 92.0742 32.5828 90.3122 32.3198C87.8242 31.9498 86.0972 30.6828 85.2792 28.1838C84.5402 25.9228 84.6092 22.4358 85.2792 20.1518Z" fill="#333333"/>
    <path fillRule="evenodd" clipRule="evenodd" d="M75.1419 25.5059C73.9129 25.5059 72.9689 26.0679 72.9689 27.3869C72.9689 28.4219 73.4069 29.0689 74.3969 29.2789C75.2039 29.4349 76.0399 29.4599 76.8819 29.2469C77.7929 29.0169 78.4569 28.3739 78.5959 27.4459C78.6889 26.8329 78.6849 26.0949 78.6849 25.5059H75.1419ZM79.2629 32.1749C79.2629 32.1749 78.8629 31.0239 78.6849 30.5509C77.4599 32.4689 75.5829 32.5279 73.6749 32.4549C72.7509 32.4189 71.8659 32.1769 71.0739 31.6769C69.6649 30.7869 69.1099 29.4269 69.0309 27.8369C68.8949 25.0959 70.4109 23.2799 73.1419 22.9259C73.8819 22.8289 74.6359 22.8249 75.3849 22.8129C76.4649 22.7949 77.5789 22.8079 78.6899 22.8079C78.6899 22.8079 78.7409 21.5459 78.5039 20.8189C78.1369 19.6869 76.8179 19.4539 75.8189 19.4199C73.1839 19.3309 70.3179 19.9999 70.3179 19.9999L70.9319 16.5029C73.4969 16.0649 76.2459 15.6519 78.8229 16.3159C80.9959 16.8759 82.2589 18.3939 82.5199 20.6219C82.5749 21.0899 82.6139 21.5629 82.6149 22.0329C82.6219 25.2969 82.6149 32.1749 82.6149 32.1749H79.2629Z" fill="#333333"/>
    <path fillRule="evenodd" clipRule="evenodd" d="M139.098 25.5059C137.869 25.5059 136.925 26.0679 136.925 27.3869C136.925 28.4219 137.363 29.0689 138.353 29.2789C139.16 29.4349 139.996 29.4599 140.838 29.2469C141.749 29.0169 142.412 28.3739 142.552 27.4459C142.644 26.8329 142.641 26.0949 142.641 25.5059H139.098ZM143.219 32.1749C143.219 32.1749 142.819 31.0239 142.641 30.5509C141.416 32.4689 139.539 32.5279 137.63 32.4549C136.707 32.4189 135.822 32.1769 135.03 31.6769C133.621 30.7869 133.066 29.4269 132.987 27.8369C132.85 25.0959 134.367 23.2799 137.098 22.9259C137.838 22.8289 138.592 22.8249 139.34 22.8129C140.421 22.7949 141.535 22.8079 142.646 22.8079C142.646 22.8079 142.697 21.5459 142.46 20.8189C142.092 19.6869 140.774 19.4539 139.775 19.4199C137.14 19.3309 134.273 19.9999 134.273 19.9999L134.888 16.5029C137.452 16.0649 140.202 15.6519 142.778 16.3159C144.952 16.8759 146.214 18.3939 146.476 20.6219C146.531 21.0899 146.57 21.5629 146.571 22.0329C146.578 25.2969 146.571 32.1749 146.571 32.1749H143.219Z" fill="#333333"/>
    <path fillRule="evenodd" clipRule="evenodd" d="M62.8457 32.175H66.8467V10L62.8457 10.761V32.175Z" fill="#333333"/>
    <path fillRule="evenodd" clipRule="evenodd" d="M53.086 20.7425H49.335V13.9255H53.086C55.173 14.0335 56.254 15.4915 56.254 17.3365C56.254 19.3865 54.986 20.6145 53.086 20.7425ZM53.086 10.2505H45V32.1755H49.335V24.4225H53.086C57 24.4225 60.506 22.5055 60.506 17.3365C60.506 12.1675 57 10.2505 53.086 10.2505Z" fill="#333333"/>
    <path fillRule="evenodd" clipRule="evenodd" d="M149.764 32.1756H153.658V16.2036H149.764V32.1756Z" fill="#333333"/>
    <path fillRule="evenodd" clipRule="evenodd" d="M118.272 17.9759L117.826 16.1829H114.467V32.1749H118.383V23.2119C118.383 23.2119 118.399 22.5729 118.441 22.2569C118.667 20.5429 120.08 19.4169 121.54 19.3389C122.397 19.2929 123.099 19.3939 123.791 19.6349L124.427 16.2699C121.841 15.4219 119.658 16.0649 118.272 17.9759Z" fill="#333333"/>
    <path fillRule="evenodd" clipRule="evenodd" d="M108.508 22.7228C108.438 20.5038 107.414 19.1378 105.253 19.1418C103.116 19.1448 102.041 20.7398 102.038 22.7228H108.508ZM111.401 28.2778L110.827 31.7688C108.358 32.4698 105.47 32.7648 102.864 32.0488C100.621 31.4328 99.1378 29.9908 98.5118 27.7638C97.8098 25.2648 97.8128 22.7378 98.6228 20.2588C99.5068 17.5578 101.476 16.1908 104.25 15.9298C105.614 15.8008 106.974 15.8718 108.276 16.3528C110.256 17.0838 111.336 18.5978 111.872 20.5718C112.299 22.1438 112.23 23.7498 112.195 25.4068H102.052C101.945 27.3378 103.013 28.4978 104.512 28.8378C105.988 29.1718 107.467 29.0518 108.937 28.7988C109.765 28.6558 110.541 28.4648 111.401 28.2778Z" fill="#333333"/>
    <path fillRule="evenodd" clipRule="evenodd" d="M125.172 32.1746H129.802V27.7266H125.172V32.1746Z" fill="#333333"/>
    <path fillRule="evenodd" clipRule="evenodd" d="M149.765 13.9385V10.6965V10.2505H153.659V13.9385H149.765Z" fill="#333333"/>
    <path fillRule="evenodd" clipRule="evenodd" d="M10.5 18C9.671 18 9 17.328 9 16.5V13.5C9 12.672 9.671 12 10.5 12C11.328 12 12 12.672 12 13.5V16.5C12 17.328 11.328 18 10.5 18Z" fill="#5E63E5"/>
    <path fillRule="evenodd" clipRule="evenodd" d="M22.5 18C21.671 18 21 17.328 21 16.5V13.5C21 12.672 21.671 12 22.5 12C23.328 12 24 12.672 24 13.5V16.5C24 17.328 23.328 18 22.5 18Z" fill="#5E63E5"/>
    <path fillRule="evenodd" clipRule="evenodd" d="M16.5 27C10.148 27 5 21.584 5 14.902C5 13.768 5.152 12.671 5.429 11.63V11.709C6.068 9.561 7.972 8 10.226 8C13.002 8 15 10.368 15 13.289V16.818V18V18.848C15 19.668 15.665 20.333 16.485 20.333H16.515C17.335 20.333 18 19.668 18 18.848V18V16.818V13.289C18 10.368 19.997 8 22.774 8C25.028 8 26.932 9.561 27.571 11.71V11.63C27.848 12.671 28 13.768 28 14.902C28 21.584 22.851 27 16.5 27ZM21 31.502C21 32.329 20.329 33 19.502 33H19.498C18.67 33 18 32.329 18 31.502V30.851C18 30.798 18.07 30.786 18.088 30.836C18.296 31.413 18.849 31.826 19.498 31.826H19.502C20.151 31.826 20.703 31.413 20.912 30.836C20.929 30.786 21 30.798 21 30.851V31.502ZM18 34.502C18 35.329 17.329 36 16.502 36H16.498C15.67 36 15 35.329 15 34.502V33.851C15 33.798 15.07 33.786 15.088 33.836C15.296 34.413 15.849 34.826 16.498 34.826H16.502C17.151 34.826 17.703 34.413 17.912 33.836C17.929 33.786 18 33.798 18 33.851V34.502ZM13.502 33H13.498C12.67 33 12 32.329 12 31.502V30.851C12 30.798 12.07 30.786 12.088 30.836C12.296 31.413 12.849 31.826 13.498 31.826H13.502C14.151 31.826 14.703 31.413 14.912 30.836C14.929 30.786 15 30.798 15 30.851V31.502C15 32.329 14.329 33 13.502 33ZM30.265 6.537L30.908 3H24.851C21.041 3 17.795 5.383 16.5 8.735C15.205 5.383 11.958 3 8.148 3H2.092L2.735 6.537C0.972 9.074 0 12.208 0 15.712C0 31.828 16.5 42 16.5 42C16.5 42 33 31.828 33 15.712C33 12.208 32.028 9.074 30.265 6.537Z" fill="#5E63E5"/>
    <path fillRule="evenodd" clipRule="evenodd" d="M23 46C23 46.552 20.09 47 16.5 47C12.91 47 10 46.552 10 46C10 45.447 12.91 45 16.5 45C20.09 45 23 45.447 23 46Z" fill="#5E63E5"/>
    <path fillRule="evenodd" clipRule="evenodd" d="M16.4999 6.32049C18.0709 3.73349 20.9059 2.00049 24.1539 2.00049H25.1189C22.7009 0.723488 19.8029 0.000488281 16.4999 0.000488281C13.1969 0.000488281 10.2989 0.723488 7.88086 2.00049H8.84586C12.0939 2.00049 14.9289 3.73349 16.4999 6.32049Z" fill="#5E63E5"/>
</svg>